<svg xmlns="http://www.w3.org/2000/svg" width="101.762" height="95.473" viewBox="0 0 101.762 95.473">
  <g id="satisfaction" transform="translate(-22.92 -42.819)">
    <g id="Group_9986" data-name="Group 9986" transform="translate(44.418 68.637)">
      <path id="Path_67942" data-name="Path 67942" d="M139.623,327.158h48.162a2.06,2.06,0,0,0,2.026-2.48,26.65,26.65,0,0,0-52.214,0A2.061,2.061,0,0,0,139.623,327.158Z" transform="translate(-137.554 -270.853)" fill="#ffe177" fill-rule="evenodd"/>
      <path id="Path_67943" data-name="Path 67943" d="M265.547,327.157h4.709a2.06,2.06,0,0,0,2.026-2.48,26.653,26.653,0,0,0-26.107-21.3q-1.19,0-2.354.1a26.661,26.661,0,0,1,23.753,21.195A2.06,2.06,0,0,1,265.547,327.157Z" transform="translate(-220.025 -270.852)" fill="#ffd064" fill-rule="evenodd"/>
      <circle id="Ellipse_499" data-name="Ellipse 499" cx="13.472" cy="13.472" r="13.472" transform="translate(9.357 7.813) rotate(-16.858)" fill="#f6dccd"/>
      <path id="Path_67944" data-name="Path 67944" d="M247.831,173.056a13.472,13.472,0,1,1-1.877,26.812,13.472,13.472,0,0,0,0-26.681A13.617,13.617,0,0,1,247.831,173.056Z" transform="translate(-221.681 -169.711)" fill="#f1cbbc" fill-rule="evenodd"/>
    </g>
    <g id="Group_9987" data-name="Group 9987" transform="translate(88.403 102.012)">
      <circle id="Ellipse_500" data-name="Ellipse 500" cx="18.14" cy="18.14" r="18.14" fill="#19a96e"/>
      <path id="Path_67945" data-name="Path 67945" d="M410.116,307.164a18.14,18.14,0,0,1,0,36.28q-.71,0-1.407-.054a18.141,18.141,0,0,0,0-36.172Q409.405,307.164,410.116,307.164Z" transform="translate(-391.976 -307.164)" fill="#5cc79b" fill-rule="evenodd"/>
      <path id="Path_67946" data-name="Path 67946" d="M374.387,361.693l8.821-8.908a2.685,2.685,0,1,1,3.811,3.785c-3.577,3.61-7.129,7.244-10.723,10.837a2.691,2.691,0,0,1-3.8,0l-5.962-5.962a2.691,2.691,0,0,1,3.805-3.8Z" transform="translate(-358.629 -341.953)" fill="#fff" fill-rule="evenodd"/>
    </g>
    <g id="Group_9988" data-name="Group 9988" transform="translate(58.646 42.819)">
      <path id="Path_67947" data-name="Path 67947" d="M213.545,43.181l2.714,7.15a.555.555,0,0,0,.5.364l7.639.372a.566.566,0,0,1,.327,1.006l-5.961,4.791a.555.555,0,0,0-.191.589l2.006,7.38a.566.566,0,0,1-.855.622l-6.4-4.189a.555.555,0,0,0-.619,0l-6.4,4.189a.566.566,0,0,1-.855-.621l2.006-7.38a.555.555,0,0,0-.191-.589l-5.961-4.791a.566.566,0,0,1,.327-1.006l7.639-.372a.555.555,0,0,0,.5-.364l2.715-7.15a.567.567,0,0,1,1.058,0Z" transform="translate(-201.095 -42.819)" fill="#ffe177" fill-rule="evenodd"/>
      <path id="Path_67948" data-name="Path 67948" d="M237.017,50.95l2.415.118a.566.566,0,0,1,.327,1.006L233.8,56.864a.555.555,0,0,0-.191.589l2.006,7.38a.565.565,0,0,1-.855.621L233.1,64.37l-1.913-7.035a.556.556,0,0,1,.191-.589l5.961-4.791A.565.565,0,0,0,237.017,50.95Zm-8.44-7.768,2.715,7.15a.555.555,0,0,0,.5.364l-2.412-.118a.555.555,0,0,1-.5-.364l-2.012-5.3.658-1.733a.567.567,0,0,1,1.057,0Zm-.219,18.085a.555.555,0,0,0-.619,0l-6.4,4.189a.566.566,0,0,1-.855-.621l.172-.631,5.783-3.786a.555.555,0,0,1,.619,0Z" transform="translate(-216.127 -42.819)" fill="#ffd064" fill-rule="evenodd"/>
    </g>
    <g id="Group_9990" data-name="Group 9990" transform="translate(94.87 63.459)">
      <path id="Path_67951" data-name="Path 67951" d="M411.63,160.088l-4.835,5.926a.555.555,0,0,0-.065.616l3.5,6.8a.566.566,0,0,1-.707.786l-7.13-2.767a.555.555,0,0,0-.606.129l-5.388,5.427a.565.565,0,0,1-.966-.43l.428-7.636a.555.555,0,0,0-.31-.536l-6.827-3.447a.566.566,0,0,1,.11-1.052l7.394-1.952a.555.555,0,0,0,.415-.46l1.169-7.558a.566.566,0,0,1,1.034-.22l4.142,6.429a.555.555,0,0,0,.566.252l7.549-1.224A.567.567,0,0,1,411.63,160.088Z" transform="translate(-388.412 -153.455)" fill="#ffe177" fill-rule="evenodd"/>
      <path id="Path_67952" data-name="Path 67952" d="M409.122,191.067l1.105,2.15a.566.566,0,0,1-.708.786l-7.13-2.767a.555.555,0,0,0-.606.129l-5.388,5.427a.566.566,0,0,1-.966-.43l.111-1.976,5.136-5.174a.555.555,0,0,1,.606-.129l7.13,2.767A.566.566,0,0,0,409.122,191.067Zm2.508-11.193L406.8,185.8a.555.555,0,0,0-.067.611l-1.1-2.148a.555.555,0,0,1,.065-.616l3.583-4.392,1.829-.3a.567.567,0,0,1,.529.916Zm-15.771,8.853a.555.555,0,0,0-.31-.536l-6.827-3.447a.566.566,0,0,1,.11-1.052l.633-.167,6.17,3.116a.555.555,0,0,1,.31.536Z" transform="translate(-388.412 -173.241)" fill="#ffd064" fill-rule="evenodd"/>
    </g>
    <g id="Group_9992" data-name="Group 9992" transform="translate(22.92 63.459)">
      <path id="Path_67955" data-name="Path 67955" d="M16.128,160.087l4.835,5.926a.555.555,0,0,1,.065.616l-3.5,6.8a.566.566,0,0,0,.708.786l7.13-2.767a.556.556,0,0,1,.606.129L31.361,177a.565.565,0,0,0,.966-.43l-.428-7.636a.555.555,0,0,1,.31-.537l6.827-3.447a.566.566,0,0,0-.111-1.052l-7.394-1.952a.555.555,0,0,1-.414-.46l-1.169-7.558a.566.566,0,0,0-1.034-.22l-4.142,6.429a.555.555,0,0,1-.566.252l-7.549-1.224a.567.567,0,0,0-.528.916Z" transform="translate(-16 -153.454)" fill="#ffe177" fill-rule="evenodd"/>
      <path id="Path_67956" data-name="Path 67956" d="M18.636,191.067l-1.105,2.15a.566.566,0,0,0,.708.786l7.13-2.767a.555.555,0,0,1,.606.129l5.388,5.427a.566.566,0,0,0,.966-.43l-.111-1.976-5.136-5.174a.555.555,0,0,0-.606-.129l-7.13,2.767A.565.565,0,0,1,18.636,191.067Zm-2.508-11.193,4.835,5.926a.555.555,0,0,1,.067.611l1.1-2.148a.555.555,0,0,0-.065-.616l-3.584-4.392-1.829-.3A.567.567,0,0,0,16.128,179.874ZM31.9,188.726a.555.555,0,0,1,.31-.537l6.827-3.447a.566.566,0,0,0-.111-1.052l-.633-.167-6.17,3.116a.555.555,0,0,0-.31.536Z" transform="translate(-16 -173.241)" fill="#ffd064" fill-rule="evenodd"/>
    </g>
  </g>
</svg>
